<?xml version="1.0" encoding="utf-8"?>
<!-- Generator: Adobe Illustrator 24.1.1, SVG Export Plug-In . SVG Version: 6.00 Build 0)  -->
<svg version="1.1" id="Layer_1" xmlns="http://www.w3.org/2000/svg" xmlns:xlink="http://www.w3.org/1999/xlink" x="0px" y="0px"
	 viewBox="0 0 221.1 732.2" style="enable-background:new 0 0 221.1 732.2;" xml:space="preserve">
<style type="text/css">
	.st0{fill:#29ABE2;}
	.st1{fill:url(#body_1_);}
	.st0{fill:url(#SVGID_1_);}
	.st1{fill:none;stroke:#0CB3EA;stroke-width:10;stroke-miterlimit:10;}
	.st2{enable-background:new    ;}
	.st3{fill:#FFFFFF;}
</style>
<g id="events">
	<g id="linkedin_x5F_box">
		<path id="arrow" class="st0" d="M45.7,649.8c-6.7-94.1-13.4-188.1-20.1-282.2c6.6-92.4,13.2-184.9,19.8-277.3c-8.5,0-17,0-25.6,0
			C13.2,182.8,6.6,275.2,0,367.6c6.7,93.6,13.3,187.1,20,280.7C28.5,648.8,37.1,649.3,45.7,649.8z"/>
		<path class="st0" d="M221.1,84.7c-14.5,0-28.9,0-43.4,0c-1,9.1-2,18.2-3.1,27.3c-21.5,0-43.1,0-64.6,0
			c-4.2-9.6-8.4-19.1-12.6-28.7c-25.3,0.2-50.6,0.4-76,0.7c-0.1-2-0.1-4.1-0.2-6.1c26.8-0.4,53.7-0.7,80.5-1.1
			c4.2,9.5,8.4,19,12.6,28.4c17.6-0.1,35.3-0.2,52.9-0.4c1.6-8.9,3.1-17.9,4.7-26.8c16.4-0.1,32.8-0.1,49.1-0.2
			C221.1,80.2,221.1,82.4,221.1,84.7z"/>
		<path class="st0" d="M221.1,653.8c-14.7,0-29.4,0-44.1,0c-2.5-7.7-5-15.4-7.6-23.1c-20.2,0-40.3,0-60.5,0
			c-2.6,7.7-5.1,15.4-7.7,23.1c-26.5,0.1-53,0.2-79.4,0.3c-0.2,2.5-0.5,5-0.7,7.6c28.3-0.3,56.6-0.5,84.9-0.8
			c2.3-7.7,4.6-15.3,6.9-23c17.6,0.1,35.3,0.2,52.9,0.3c2.3,7.7,4.6,15.4,6.8,23.1c16.2,0,32.3,0,48.5,0
			C221.1,658.8,221.1,656.3,221.1,653.8z"/>
		
			<linearGradient id="body_1_" gradientUnits="userSpaceOnUse" x1="-178.2201" y1="879.0959" x2="10.2068" y2="879.0959" gradientTransform="matrix(-1 0 0 -1 42.88 1248)">
			<stop  offset="0" style="stop-color:#0CB3EA"/>
			<stop  offset="1" style="stop-color:#2891DD"/>
		</linearGradient>
		<path id="body" class="st1" d="M221.1,648.4c-2.3,0-4.6,0.1-6.9,0.1h-32.8l-7.5-23h-69.7l-6,23H51.1L32.7,367.6L51.1,89.6h13.5
			h30.7l11.5,26.8h71.6l3-26.8h33.4c2.1-0.1,4.1-0.2,6.2-0.2C221.1,275.7,221.1,462,221.1,648.4z"/>
	</g>
	<g class="st2">
		<path class="st3" d="M112.1,204.7l-6.6-0.1l0.9-53.8l72.8,0.9l-0.9,52.1l-6.7-0.1l0.8-44.1l-25.9-0.3l-0.7,39.3l-6.6-0.1l0.7-39.3
			l-27-0.3L112.1,204.7z"/>
		<path class="st3" d="M176.7,291.4l-72.2-34.6l0.1-7.9l73.4-32.7l-0.1,8.7l-63.7,28.3l62.7,30.1L176.7,291.4z"/>
		<path class="st3" d="M109.4,360l-6.7-0.1l0.9-53.8l72.8,0.9l-0.9,52.1l-6.7-0.1l0.8-44.1l-25.9-0.3l-0.7,39.3l-6.6-0.1l0.7-39.3
			l-27-0.3L109.4,360z"/>
		<path class="st3" d="M174,448l-72.8-0.9l0.1-6.6l59.9-48.1l-59.1-0.8l0.1-8l72.8,0.9l-0.1,6.6l-59.9,48.2l59.1,0.8L174,448z"/>
		<path class="st3" d="M166.6,492.3l0.5-26.7l6.7,0.1l-1.1,61.5L166,527l0.5-26.7l-66.2-0.9l0.1-8L166.6,492.3z"/>
		<path class="st3" d="M101.5,547.3c1.8-5.2,4.2-9.1,7.1-11.9l5.9,3.2c-2.7,2.7-4.9,6.3-6.6,10.9c-1.7,4.5-2.6,9.2-2.7,14.1
			c-0.1,6.8,1,11.9,3.3,15.4c2.3,3.4,5.4,5.2,9.2,5.2c2.9,0,5.3-0.9,7-2.7c1.8-1.8,3.1-4.1,4.1-6.7c1-2.7,2.1-6.4,3.3-11.1
			c1.5-5.7,2.9-10.2,4.2-13.6s3.3-6.3,6-8.7c2.7-2.4,6.3-3.6,10.8-3.5c3.7,0,7,1.1,10,3.2c3,2.1,5.3,5.2,7.1,9.4
			c1.7,4.2,2.5,9.4,2.4,15.7c-0.1,4.3-0.7,8.6-1.9,12.7c-1.2,4.1-2.9,7.7-4.9,10.7l-6.1-2.8c2.1-3.2,3.6-6.5,4.7-10.1
			c1.1-3.6,1.6-7.1,1.7-10.6c0.1-6.7-1-11.7-3.4-15.1c-2.4-3.4-5.6-5.1-9.4-5.2c-2.9,0-5.3,0.9-7.1,2.7c-1.8,1.8-3.2,4.1-4.2,6.9
			c-1,2.8-2.1,6.5-3.3,11.2c-1.4,5.6-2.8,10-4.1,13.5c-1.3,3.4-3.3,6.3-6,8.7c-2.6,2.4-6.2,3.5-10.6,3.4c-3.7,0-7-1.1-10-3.2
			s-5.3-5.3-7-9.6s-2.5-9.6-2.4-15.8C98.7,557.8,99.7,552.4,101.5,547.3z"/>
		<path class="st3" d="M100.06,187.09L93.41,187l0.93-56.2l72.8,0.98l-0.9,54.49l-6.66-0.09l0.76-46.09l-25.9-0.35l-0.68,41.1
			l-6.55-0.09l0.68-41.1l-27.04-0.36L100.06,187.09z"/>
		<path class="st3" d="M164.73,277.67l-72.23-36.17l0.14-8.29l73.39-34.21l-0.15,9.08l-63.74,29.57l62.73,31.5L164.73,277.67z"/>
		<path class="st3" d="M97.39,349.43l-6.66-0.09l0.93-56.2l72.81,0.98l-0.9,54.49l-6.66-0.09l0.76-46.09l-25.9-0.35l-0.68,41.1
			l-6.55-0.09l0.68-41.1l-27.04-0.36L97.39,349.43z"/>
		<path class="st3" d="M162.03,441.48l-72.8-0.98l0.11-6.92l59.92-50.29l-59.08-0.79l0.14-8.4l72.81,0.98l-0.11,6.93l-59.92,50.4
			l59.08,0.79L162.03,441.48z"/>
		<path class="st3" d="M154.61,487.71l0.46-27.93l6.66,0.09l-1.06,64.26l-6.66-0.09l0.46-27.93l-66.15-0.89l0.14-8.4L154.61,487.71z
			"/>
		<path class="st3" d="M89.48,545.25c1.82-5.39,4.18-9.54,7.07-12.45l5.87,3.37c-2.68,2.84-4.88,6.63-6.59,11.38
			c-1.71,4.75-2.6,9.65-2.69,14.73c-0.12,7.11,0.99,12.46,3.32,16.05c2.33,3.59,5.41,5.41,9.22,5.46c2.91,0.04,5.25-0.9,7.02-2.8
			c1.76-1.91,3.14-4.25,4.12-7.04s2.07-6.67,3.26-11.65c1.49-5.96,2.9-10.71,4.24-14.25s3.35-6.56,6.03-9.06
			c2.68-2.5,6.27-3.72,10.78-3.66c3.67,0.05,7,1.15,9.98,3.31s5.34,5.45,7.07,9.86c1.73,4.41,2.54,9.88,2.43,16.39
			c-0.08,4.54-0.72,8.98-1.94,13.32c-1.22,4.33-2.86,8.08-4.92,11.23l-6.09-2.92c2.06-3.3,3.63-6.84,4.7-10.61
			c1.07-3.77,1.63-7.47,1.69-11.11c0.11-6.96-1.03-12.22-3.43-15.77c-2.4-3.55-5.55-5.36-9.43-5.41c-2.91-0.04-5.27,0.9-7.07,2.8
			c-1.8,1.91-3.19,4.31-4.18,7.21c-0.98,2.9-2.07,6.8-3.26,11.71c-1.41,5.81-2.79,10.5-4.13,14.08c-1.34,3.58-3.33,6.6-5.97,9.06
			c-2.64,2.46-6.18,3.66-10.62,3.6c-3.68-0.05-7-1.17-9.98-3.37c-2.98-2.2-5.32-5.54-7.01-10.03c-1.69-4.49-2.49-9.99-2.38-16.5
			C86.69,556.29,87.65,550.64,89.48,545.25z"/>
	</g>
</g>
</svg>
