<?xml version="1.0" encoding="utf-8"?>
<!-- Generator: Adobe Illustrator 24.1.1, SVG Export Plug-In . SVG Version: 6.00 Build 0)  -->
<svg version="1.1" id="Layer_1" xmlns="http://www.w3.org/2000/svg" xmlns:xlink="http://www.w3.org/1999/xlink" x="0px" y="0px"
	 viewBox="0 0 221.1 732.2" style="enable-background:new 0 0 221.1 732.2;" xml:space="preserve">
<style type="text/css">
	.st0{fill:url(#SVGID_1_);}
	.st1{fill:none;stroke:#0CB3EA;stroke-width:10;stroke-miterlimit:10;}
	.st2{enable-background:new    ;}
	.st3{fill:#FFFFFF;}
</style>
<g id="events">
	<g>
		
			<linearGradient id="SVGID_1_" gradientUnits="userSpaceOnUse" x1="28.6" y1="365.5" x2="216.1" y2="365.5" gradientTransform="matrix(1 0 0 -1 0 732)">
			<stop  offset="0" style="stop-color:#2693DE"/>
			<stop  offset="1" style="stop-color:#0EB1E9"/>
		</linearGradient>
		<polygon class="st0" points="216.1,25.6 78.3,25.6 28.6,89 28.6,631.2 88.3,707.4 216.1,707.4 		"/>
		<polygon class="st1" points="216.1,5 60.9,5 5,72.1 5,646.5 72.3,727.2 216.1,727.2 		"/>
	</g>
	<g class="st2">
		<path class="st3" d="M100.06,187.09L93.41,187l0.93-56.2l72.8,0.98l-0.9,54.49l-6.66-0.09l0.76-46.09l-25.9-0.35l-0.68,41.1
			l-6.55-0.09l0.68-41.1l-27.04-0.36L100.06,187.09z"/>
		<path class="st3" d="M164.73,277.67l-72.23-36.17l0.14-8.29l73.39-34.21l-0.15,9.08l-63.74,29.57l62.73,31.5L164.73,277.67z"/>
		<path class="st3" d="M97.39,349.43l-6.66-0.09l0.93-56.2l72.81,0.98l-0.9,54.49l-6.66-0.09l0.76-46.09l-25.9-0.35l-0.68,41.1
			l-6.55-0.09l0.68-41.1l-27.04-0.36L97.39,349.43z"/>
		<path class="st3" d="M162.03,441.48l-72.8-0.98l0.11-6.92l59.92-50.29l-59.08-0.79l0.14-8.4l72.81,0.98l-0.11,6.93l-59.92,50.4
			l59.08,0.79L162.03,441.48z"/>
		<path class="st3" d="M154.61,487.71l0.46-27.93l6.66,0.09l-1.06,64.26l-6.66-0.09l0.46-27.93l-66.15-0.89l0.14-8.4L154.61,487.71z
			"/>
		<path class="st3" d="M89.48,545.25c1.82-5.39,4.18-9.54,7.07-12.45l5.87,3.37c-2.68,2.84-4.88,6.63-6.59,11.38
			c-1.71,4.75-2.6,9.65-2.69,14.73c-0.12,7.11,0.99,12.46,3.32,16.05c2.33,3.59,5.41,5.41,9.22,5.46c2.91,0.04,5.25-0.9,7.02-2.8
			c1.76-1.91,3.14-4.25,4.12-7.04s2.07-6.67,3.26-11.65c1.49-5.96,2.9-10.71,4.24-14.25s3.35-6.56,6.03-9.06
			c2.68-2.5,6.27-3.72,10.78-3.66c3.67,0.05,7,1.15,9.98,3.31s5.34,5.45,7.07,9.86c1.73,4.41,2.54,9.88,2.43,16.39
			c-0.08,4.54-0.72,8.98-1.94,13.32c-1.22,4.33-2.86,8.08-4.92,11.23l-6.09-2.92c2.06-3.3,3.63-6.84,4.7-10.61
			c1.07-3.77,1.63-7.47,1.69-11.11c0.11-6.96-1.03-12.22-3.43-15.77c-2.4-3.55-5.55-5.36-9.43-5.41c-2.91-0.04-5.27,0.9-7.07,2.8
			c-1.8,1.91-3.19,4.31-4.18,7.21c-0.98,2.9-2.07,6.8-3.26,11.71c-1.41,5.81-2.79,10.5-4.13,14.08c-1.34,3.58-3.33,6.6-5.97,9.06
			c-2.64,2.46-6.18,3.66-10.62,3.6c-3.68-0.05-7-1.17-9.98-3.37c-2.98-2.2-5.32-5.54-7.01-10.03c-1.69-4.49-2.49-9.99-2.38-16.5
			C86.69,556.29,87.65,550.64,89.48,545.25z"/>
	</g>
</g>
</svg>
