<?xml version="1.0" encoding="utf-8"?>
<!-- Generator: Adobe Illustrator 24.1.1, SVG Export Plug-In . SVG Version: 6.00 Build 0)  -->
<svg version="1.1" id="Layer_1" xmlns="http://www.w3.org/2000/svg" xmlns:xlink="http://www.w3.org/1999/xlink" x="0px" y="0px"
	 viewBox="0 0 3475 1297.54" style="enable-background:new 0 0 3475 1297.54;" xml:space="preserve">
<style type="text/css">
	.st0{fill:#7F5CFF;}
	.st1{fill:#2A1E54;}
</style>
<g>
	<g>
		<g>
			<polygon class="st0" points="650.3,1181.19 520.24,1259.8 0,1259.8 0,630.9 130.06,630.9 130.06,1181.19 			"/>
		</g>
	</g>
	<g>
		<polygon class="st1" points="585.28,1102.58 495.23,1102.58 495.23,565.39 0,565.39 0,539.18 585.28,539.18 		"/>
	</g>
	<g>
		<polygon class="st1" points="585.28,512.98 0,512.98 0,486.77 495.23,486.77 495.23,460.57 0,460.57 0,434.37 585.28,434.37 		"/>
	</g>
	<g>
		<g>
			<path class="st1" d="M3475,12.17v246.08h-46.4c0-57.24-28.05-109.2-73.24-146.82c-45.34-37.49-107.96-60.77-176.96-60.77v-38.5
				H3475z"/>
		</g>
	</g>
	<g>
		<polygon class="st0" points="241.97,143.21 2850.3,143.21 3326.7,550.7 3326.7,1162.33 856.74,1162.33 856.74,370.67 
			691.97,266.25 174.38,266.25 108.64,266.25 		"/>
		<path class="st0" d="M3472.43,1297.54H697.52V493.9L574.37,391.73H0V161.17L177,14.31h2736.21l559.21,463.96V1297.54z
			 M743.01,1259.8h2683.93V493.9L2894.38,52.05H195.84L45.49,176.79v177.2h547.72l149.8,124.28V1259.8z"/>
	</g>
</g>
</svg>
